PathFileType  4	(X/Y/Z) C:\Users\antoi\Documents\MyRepositories\mobilecap\ResultsAnalysis
DataRate	CameraRate	NumFrames	NumMarkers	Units	OrigDataRate	OrigDataStartFrame	OrigNumFrames
100.0	100.0	4	51	mm	100.0	163	216
Frame#	Time	r_knee			r_shank_antsup			r_ankle			r_calc			r_5meta			r_toe			L_knee			L_shank_antsup			L_ankle			L_calc			L_5meta			L_toe			r_sh2			r_sh3			r_sh4			L_sh2			L_sh3			r_thigh1			r_thigh2			r_thigh3			r_thigh4			r_thigh5			L_thigh1			L_thigh2			L_thigh3			L_thigh4			r.ASIS			r.PSIS			L.ASIS			L.PSIS			C7			R_Shoulder			L_Shoulder			R_Sternum			L_Sternum			R_humerus			R_elbow_med			R_elbow_lat			R_forearm			R_wrist_radius			R_wrist_ulna			L_humerus			L_elbow_med			L_elbow_lat			L_forearm			L_wrist_radius			L_wrist_ulna			R_HJC			L_HJC			R_HJC_reg			L_HJC_reg			
		X1	Y1	Z1	X2	Y2	Z2	X3	Y3	Z3	X4	Y4	Z4	X5	Y5	Z5	X6	Y6	Z6	X7	Y7	Z7	X8	Y8	Z8	X9	Y9	Z9	X10	Y10	Z10	X11	Y11	Z11	X12	Y12	Z12	X13	Y13	Z13	X14	Y14	Z14	X15	Y15	Z15	X16	Y16	Z16	X17	Y17	Z17	X18	Y18	Z18	X19	Y19	Z19	X20	Y20	Z20	X21	Y21	Z21	X22	Y22	Z22	X23	Y23	Z23	X24	Y24	Z24	X25	Y25	Z25	X26	Y26	Z26	X27	Y27	Z27	X28	Y28	Z28	X29	Y29	Z29	X30	Y30	Z30	X31	Y31	Z31	X32	Y32	Z32	X33	Y33	Z33	X34	Y34	Z34	X35	Y35	Z35	X36	Y36	Z36	X37	Y37	Z37	X38	Y38	Z38	X39	Y39	Z39	X40	Y40	Z40	X41	Y41	Z41	X42	Y42	Z42	X43	Y43	Z43	X44	Y44	Z44	X45	Y45	Z45	X46	Y46	Z46	X47	Y47	Z47	X48	Y48	Z48	X49	Y49	Z49	X50	Y50	Z50	X51	Y51	Z51	

163	1.62000000	-192.76336	604.40008	-369.92691	-148.39720	540.23452	-365.08759	-198.36886	196.90211	-310.85411	-258.48838	207.52874	-357.28566	-142.73996	83.29285	-280.65904	-77.54450	85.97298	-321.10840	-179.41964	625.81060	-800.67988	-138.01024	539.56697	-833.85245	-172.23157	219.59238	-858.33040	-218.49560	231.60340	-790.82079	-125.63921	95.38730	-890.90787	-59.45207	107.35480	-865.87574	-167.18956	432.86091	-322.64036	-228.79173	550.36981	-351.06362	-239.70629	439.89699	-327.26949	-225.70556	539.11319	-814.75034	-218.02545	420.15671	-845.95395	-124.15050	916.93844	-380.67673	-133.81472	806.51679	-373.11516	-195.02877	787.77603	-355.56092	-237.95222	923.47255	-389.26919	-242.42221	806.58787	-380.20121	-176.66273	902.57229	-800.64476	-150.68154	766.91172	-806.83467	-275.13734	876.99615	-739.22600	-246.56886	741.36191	-761.91687	-85.18556	1074.17314	-450.31757	-267.35124	1137.75917	-520.84687	-98.64751	1070.06543	-695.95489	-281.82081	1146.30424	-620.13212	-124.89759	1545.84933	-600.06303	-58.19603	1522.49119	-455.77182	-98.40350	1502.35012	-748.06491	0.94239	1456.33168	-578.19776	-9.87316	1446.20564	-610.69731	-53.93775	1464.87502	-340.26304	-82.13533	1269.96990	-234.15860	-51.76756	1324.72610	-191.77335	84.50034	1290.28072	-222.49554	198.36642	1251.40451	-258.67074	206.38271	1226.24059	-235.05261	-132.19616	1456.59401	-843.65692	-249.98262	1255.48010	-927.29071	-238.39803	1332.27227	-973.28832	-143.95392	1356.75713	-916.10014	-34.10408	1368.99654	-841.44527	-16.11293	1363.32066	-869.74352	-173.78561	1006.21383	-469.91134	-183.41504	1007.67673	-676.15696	-159.35548	1001.81352	-479.61557	-182.68347	1015.59355	-639.72168	
164	1.63000000	-198.31143	624.04898	-370.35495	-154.67468	559.96566	-364.77207	-199.52934	214.79686	-311.57788	-258.67218	223.05824	-360.37123	-141.37209	101.90654	-281.24926	-75.07359	107.34891	-319.77830	-180.90650	644.69914	-799.16693	-143.61864	558.70465	-834.87863	-174.74680	237.58134	-858.10496	-218.29425	245.74823	-787.86153	-124.85739	116.09853	-895.76650	-58.12707	130.61939	-873.98958	-171.66601	452.33288	-322.22447	-234.94836	568.63187	-350.30292	-244.15742	458.08498	-326.50515	-229.96965	557.33258	-810.41284	-223.15876	438.48492	-841.40122	-119.98952	932.89477	-382.42959	-135.16218	822.68099	-375.64990	-196.36865	806.76275	-357.14694	-233.76849	945.06027	-386.56475	-243.59997	828.27962	-379.75461	-175.98884	921.34371	-801.62909	-152.20823	784.91779	-806.11988	-273.53451	897.97292	-737.89151	-247.67286	761.73949	-759.84668	-80.30929	1098.35027	-452.07027	-261.88182	1158.57481	-519.10243	-94.11207	1096.17936	-695.06073	-278.09966	1167.49796	-618.21682	-127.68191	1564.72965	-601.48968	-60.55769	1539.52231	-455.06673	-102.29841	1517.20696	-750.63721	-1.02665	1475.33369	-579.92365	-11.71716	1465.68717	-612.48327	-55.52393	1478.19235	-340.91535	-86.76748	1279.15113	-242.54455	-56.94239	1331.23069	-196.87550	79.41979	1290.74897	-222.46146	192.94138	1246.98632	-255.22858	199.19708	1221.79056	-231.16858	-134.37047	1464.85677	-845.64318	-247.63858	1257.89048	-917.65840	-238.37214	1331.92339	-967.61833	-144.49467	1361.49082	-912.84245	-33.34250	1379.48399	-839.84441	-16.10588	1373.08463	-868.31394	-166.44764	1028.53537	-470.25782	-177.46554	1031.77366	-676.40583	-151.61742	1026.06581	-480.30105	-177.46050	1040.28100	-638.20825	
165	1.64000000	-197.09591	641.70416	-369.70940	-155.67333	577.40324	-364.46261	-203.84355	232.87782	-313.06095	-262.24499	240.05951	-363.57513	-145.59706	120.19130	-281.81154	-78.51783	126.16761	-318.85542	-178.74126	662.09247	-798.80268	-146.55088	576.80144	-835.60355	-176.64216	255.91025	-859.78084	-218.66004	262.63367	-788.16493	-127.58041	135.33116	-900.81227	-60.52800	149.37730	-880.26663	-173.42622	469.63329	-322.81696	-235.79088	586.68074	-349.31338	-245.92005	476.25364	-326.42894	-231.58802	574.88058	-806.61198	-226.31363	455.94144	-837.51195	-116.10113	950.08026	-384.15946	-131.81896	839.94698	-376.54383	-192.75907	824.76517	-356.26250	-229.76024	963.55488	-383.15348	-240.60168	846.73851	-376.89597	-175.21658	939.32864	-803.43297	-150.51960	802.62117	-806.37443	-270.93076	915.90634	-737.05102	-245.17470	779.39296	-759.38698	-77.65978	1119.25438	-453.96349	-258.72049	1178.55722	-516.76863	-91.50293	1120.58257	-694.52062	-276.47661	1187.85633	-615.91542	-130.48142	1580.97522	-602.85867	-59.83473	1553.33350	-452.65674	-105.63160	1531.15948	-753.21277	-3.54572	1492.11640	-581.99472	-13.14193	1483.35872	-613.66272	-55.10547	1488.93903	-341.41424	-90.01639	1286.53063	-250.27018	-61.25233	1336.11331	-201.52415	75.04187	1290.62508	-223.73452	187.69261	1242.23466	-254.05424	192.44265	1217.11234	-229.59987	-136.35996	1471.97810	-847.11413	-243.72754	1260.02283	-907.44170	-237.09391	1331.18319	-961.19815	-143.84687	1365.17079	-909.17134	-31.29639	1387.96084	-837.83016	-14.54347	1381.37445	-866.58587	-162.01395	1048.55931	-471.10649	-174.47509	1054.83804	-677.09801	-147.18643	1048.85739	-481.11366	-175.10116	1063.47646	-637.00096	
166	1.65000000	-192.66912	657.75903	-368.58574	-153.15855	593.10015	-364.07676	-210.07496	250.55065	-314.34886	-267.56060	259.52892	-365.32262	-155.34166	136.47096	-282.42834	-87.72894	140.34452	-318.72176	-176.21947	678.83423	-799.80345	-146.57315	593.94260	-836.75750	-178.66602	274.32921	-862.25130	-220.43109	281.64255	-790.54950	-132.82347	153.58348	-904.88165	-65.38918	165.06719	-884.01565	-172.99231	485.37876	-323.25946	-233.71539	604.54642	-348.85811	-245.53202	493.63465	-326.77860	-230.64410	591.90655	-805.06868	-226.82110	473.02514	-836.92445	-111.91135	968.57738	-385.17749	-124.90835	858.40210	-375.55589	-185.06816	842.41192	-352.70085	-225.55988	980.15596	-379.45541	-233.95431	863.06934	-372.12605	-174.57809	956.53598	-805.21070	-147.53955	819.97535	-807.55437	-268.32147	931.76933	-736.69029	-241.52607	795.28655	-760.11409	-76.55788	1137.98364	-455.86733	-257.68595	1197.37200	-514.16854	-90.95263	1142.28851	-694.09211	-276.59111	1206.80764	-613.34500	-133.01808	1594.79035	-603.76940	-57.26824	1564.95408	-449.42399	-108.26733	1544.54427	-755.82410	-6.26510	1506.87771	-584.07918	-14.27462	1499.31403	-614.15413	-53.30238	1497.02754	-341.33274	-92.55545	1292.54551	-256.82249	-64.34952	1339.81637	-206.09370	71.67560	1289.99948	-226.47461	183.00932	1237.18319	-254.73958	186.21331	1211.76071	-230.35257	-138.67389	1478.55758	-848.22216	-238.97214	1261.79276	-896.72205	-234.92298	1330.31717	-953.73644	-141.90754	1367.90243	-904.46167	-28.02251	1395.42555	-835.85037	-11.71023	1387.99677	-864.40259	-159.80312	1066.91042	-471.67484	-174.11345	1075.81114	-677.45819	-145.36895	1069.81630	-481.92394	-174.73786	1084.47629	-636.00719	
